<?xml version="1.0" standalone="no"?>
<!DOCTYPE svg PUBLIC "-//W3C//DTD SVG 20010904//EN"
 "http://www.w3.org/TR/2001/REC-SVG-20010904/DTD/svg10.dtd">
<svg version="1.0" xmlns="http://www.w3.org/2000/svg"
 width="25px" height="25px" viewBox="0 100 530 530"
 preserveAspectRatio="xMidYMid meet">
<g transform="translate(0.000000,512.000000) scale(0.100000,-0.100000)"
fill="#000000" stroke="none">
<path d="M2245 4659 c-60 -73 -101 -193 -92 -277 9 -86 47 -151 140 -238 105
-98 117 -117 117 -179 0 -49 -18 -95 -70 -185 -24 -42 -25 -58 -4 -88 43 -62
108 -46 160 39 52 85 74 157 74 236 0 102 -29 155 -149 273 -131 128 -139 163
-64 298 27 49 33 69 28 92 -14 65 -95 82 -140 29z"/>
<path d="M2604 4639 c-31 -16 -91 -123 -105 -187 -8 -40 -8 -66 1 -100 18 -74
38 -103 126 -188 78 -74 84 -84 84 -120 0 -28 -10 -57 -33 -96 -45 -74 -48
-83 -36 -118 13 -35 35 -50 77 -50 60 0 140 132 149 244 8 92 -21 151 -125
251 -102 98 -106 112 -58 210 42 87 43 96 14 129 -27 30 -64 39 -94 25z"/>
<path d="M1944 4545 c-46 -46 -88 -151 -88 -220 0 -85 28 -136 124 -229 44
-42 83 -88 86 -102 10 -38 -3 -82 -38 -137 -40 -62 -41 -102 -4 -134 57 -49
106 -20 163 95 34 68 38 84 38 152 0 94 -26 143 -121 227 -105 93 -112 123
-52 231 21 37 28 60 24 77 -16 65 -86 86 -132 40z"/>
<path d="M475 4056 c-22 -13 -49 -39 -60 -58 -20 -33 -20 -51 -20 -1583 0
-1532 0 -1550 20 -1584 34 -58 67 -75 153 -81 l77 -5 5 -110 c5 -117 13 -138
69 -181 24 -17 47 -19 281 -22 253 -3 256 -3 290 20 57 38 80 96 80 205 l0 93
630 0 630 0 0 -104 c0 -116 14 -149 79 -193 33 -22 41 -23 281 -23 240 0 248
1 280 23 65 44 75 67 78 188 l4 109 77 0 c88 0 127 18 168 79 l23 34 -2 798
c-3 788 -3 798 -24 825 -39 53 -70 68 -144 72 l-70 4 0 554 0 554 75 0 75 0 0
-33 c0 -23 8 -41 26 -58 l26 -24 491 0 c546 0 542 0 600 64 88 98 56 268 -60
317 -26 11 -131 14 -536 14 l-504 0 -21 -22 c-11 -13 -22 -39 -24 -58 l-3 -35
-132 -3 c-176 -4 -173 0 -173 -193 l0 -139 -909 0 c-904 0 -908 0 -935 -21
l-26 -20 0 -450 0 -449 -44 0 -45 0 6 703 5 702 -23 34 c-13 19 -37 44 -52 55
-27 20 -41 21 -355 24 l-327 2 -40 -24z m632 -828 c-6 -660 -5 -695 12 -734
10 -23 34 -52 52 -65 l34 -24 1128 -3 1127 -2 0 -745 0 -745 -1455 0 -1455 0
0 1505 0 1505 282 0 281 0 -6 -692z m3457 539 c9 -15 7 -22 -13 -38 -22 -18
-43 -19 -442 -19 l-419 0 0 40 0 40 431 -2 c405 -3 433 -4 443 -21z m-2924
-502 l0 -75 -65 0 -65 0 0 75 0 75 65 0 65 0 0 -75z m320 0 l0 -75 -80 0 -80
0 0 75 0 75 80 0 80 0 0 -75z m320 0 l0 -75 -80 0 -80 0 0 75 0 75 80 0 80 0
0 -75z m320 0 l0 -75 -80 0 -80 0 0 75 0 75 80 0 80 0 0 -75z m320 0 l0 -75
-80 0 -80 0 0 75 0 75 80 0 80 0 0 -75z m300 0 l0 -75 -70 0 -70 0 0 75 0 75
70 0 70 0 0 -75z m-1580 -315 l0 -80 -65 0 -65 0 0 80 0 80 65 0 65 0 0 -80z
m320 0 l0 -80 -80 0 -80 0 0 80 0 80 80 0 80 0 0 -80z m320 0 l0 -80 -80 0
-80 0 0 80 0 80 80 0 80 0 0 -80z m320 0 l0 -80 -80 0 -80 0 0 80 0 80 80 0
80 0 0 -80z m320 0 l0 -80 -80 0 -80 0 0 80 0 80 80 0 80 0 0 -80z m300 0 l0
-80 -70 0 -70 0 0 80 0 80 70 0 70 0 0 -80z m-1580 -315 l0 -75 -65 0 -65 0 0
75 0 75 65 0 65 0 0 -75z m320 0 l0 -75 -80 0 -80 0 0 75 0 75 80 0 80 0 0
-75z m320 0 l0 -75 -80 0 -80 0 0 75 0 75 80 0 80 0 0 -75z m320 0 l0 -75 -80
0 -80 0 0 75 0 75 80 0 80 0 0 -75z m320 0 l0 -75 -80 0 -80 0 0 75 0 75 80 0
80 0 0 -75z m300 0 l0 -75 -70 0 -70 0 0 75 0 75 70 0 70 0 0 -75z m-2012
-1967 l3 -78 -201 0 -200 0 0 80 0 80 198 -2 197 -3 3 -77z m1982 2 l0 -80
-200 0 -200 0 0 80 0 80 200 0 200 0 0 -80z"/>
<path d="M2903 2262 c-265 -95 -288 -465 -35 -589 48 -24 69 -28 137 -28 98 0
158 25 227 92 65 64 92 129 92 223 0 94 -27 159 -92 223 -88 86 -220 118 -329
79z m137 -148 c0 -4 -16 -24 -35 -45 -50 -56 -47 -107 7 -135 38 -20 68 -12
112 26 39 34 51 27 42 -23 -16 -85 -92 -143 -174 -134 -136 15 -191 180 -90
274 12 12 34 26 48 32 28 11 90 14 90 5z"/>
</g>
</svg>
